<svg width="14" height="8" viewBox="0 0 14 8" fill="none" xmlns="http://www.w3.org/2000/svg">
<path d="M13.6072 0.372418C13.3583 0.133886 13.0217 0 12.6709 0C12.32 0 11.9834 0.133886 11.7346 0.372418L6.9668 4.90609L2.26542 0.372418C2.01659 0.133886 1.67999 0 1.32913 0C0.978274 0 0.641672 0.133886 0.392841 0.372418C0.268363 0.491475 0.169562 0.633122 0.102138 0.789187C0.0347131 0.945252 0 1.11265 0 1.28171C0 1.45078 0.0347131 1.61818 0.102138 1.77424C0.169562 1.93031 0.268363 2.07195 0.392841 2.19101L6.02387 7.62117C6.14733 7.74121 6.29421 7.83649 6.45605 7.90151C6.61789 7.96652 6.79148 8 6.9668 8C7.14212 8 7.31571 7.96652 7.47754 7.90151C7.63938 7.83649 7.78627 7.74121 7.90973 7.62117L13.6072 2.19101C13.7316 2.07195 13.8304 1.93031 13.8979 1.77424C13.9653 1.61818 14 1.45078 14 1.28171C14 1.11265 13.9653 0.945252 13.8979 0.789187C13.8304 0.633122 13.7316 0.491475 13.6072 0.372418Z" fill="#777777"/>
</svg>
