<svg width="22" height="22" viewBox="0 0 22 22" fill="none" xmlns="http://www.w3.org/2000/svg">
<path d="M15.1894 20.1668C15.4328 20.1682 15.6741 20.1211 15.8992 20.0282C16.1242 19.9354 16.3286 19.7986 16.5002 19.626L18.9844 17.1418C19.1551 16.97 19.2509 16.7377 19.2509 16.4955C19.2509 16.2534 19.1551 16.021 18.9844 15.8493L15.3177 12.1826C15.1459 12.0119 14.9136 11.9161 14.6714 11.9161C14.4293 11.9161 14.1969 12.0119 14.0252 12.1826L12.5585 13.6401C11.5431 13.3694 10.6026 12.871 9.80853 12.1826C9.12206 11.3872 8.62386 10.4472 8.35103 9.43263L9.80853 7.96596C9.97926 7.79421 10.0751 7.56188 10.0751 7.31971C10.0751 7.07754 9.97926 6.84521 9.80853 6.67346L6.14186 3.0068C5.97011 2.83607 5.73778 2.74024 5.49561 2.74024C5.25344 2.74024 5.02111 2.83607 4.84936 3.0068L2.37436 5.50013C2.20169 5.67177 2.06493 5.87608 1.97208 6.10114C1.87922 6.3262 1.83212 6.5675 1.83353 6.81096C1.91669 10.3331 3.3241 13.6945 5.77519 16.2251C8.30585 18.6762 11.6673 20.0836 15.1894 20.1668ZM5.50019 4.9593L7.87436 7.33346L6.69186 8.51596C6.57986 8.62087 6.49599 8.75222 6.44795 8.89797C6.3999 9.04371 6.38921 9.19918 6.41686 9.35013C6.75948 10.8813 7.48488 12.3006 8.52519 13.4751C9.69886 14.5168 11.1185 15.2424 12.6502 15.5835C12.7989 15.6145 12.9529 15.6082 13.0985 15.565C13.2441 15.5218 13.3767 15.4431 13.4844 15.336L14.6669 14.126L17.041 16.5001L15.2077 18.3335C12.1678 18.2552 9.26724 17.042 7.07686 14.9326C4.96203 12.7413 3.74533 9.83698 3.66686 6.79263L5.50019 4.9593ZM18.3335 10.0835H20.1669C20.1906 8.99355 19.9935 7.9101 19.5873 6.89842C19.1811 5.88674 18.5743 4.96777 17.8034 4.1969C17.0326 3.42603 16.1136 2.81921 15.1019 2.41303C14.0902 2.00684 13.0068 1.80969 11.9169 1.83346V3.6668C12.7674 3.63737 13.615 3.78322 14.4068 4.09528C15.1986 4.40733 15.9178 4.87892 16.5196 5.48073C17.1214 6.08254 17.593 6.80171 17.905 7.59353C18.2171 8.38534 18.363 9.23288 18.3335 10.0835Z" fill="#2183AA"/>
<path d="M11.9165 7.33333C13.8415 7.33333 14.6665 8.15833 14.6665 10.0833H16.4998C16.4998 7.13167 14.8682 5.5 11.9165 5.5V7.33333Z" fill="#2183AA"/>
</svg>
