<svg width="32" height="32" viewBox="0 0 32 32" fill="none" xmlns="http://www.w3.org/2000/svg">
<path d="M31 16C31 24.2843 24.2843 31 16 31C7.71573 31 1 24.2843 1 16C1 7.71573 7.71573 1 16 1C24.2843 1 31 7.71573 31 16Z" stroke="white" stroke-width="2"/>
<path d="M24.3197 10.4389C24.3197 8.97319 23.0264 7.67993 21.5607 7.67993H10.4386C8.97295 7.67993 7.67969 8.97319 7.67969 10.4389V21.561C7.67969 23.0267 8.97295 24.3199 10.4386 24.3199H16.0428V18.026H13.9736V15.2671H16.0428V14.1463C16.0428 12.2495 17.4223 10.6113 19.1466 10.6113H21.3883V13.3703H19.1466C18.888 13.3703 18.6293 13.6289 18.6293 14.1463V15.2671H21.3883V18.026H18.6293V24.3199H21.5607C23.0264 24.3199 24.3197 23.0267 24.3197 21.561V10.4389Z" fill="white"/>
</svg>
