<svg width="22" height="22" viewBox="0 0 22 22" fill="none" xmlns="http://www.w3.org/2000/svg">
<path fill-rule="evenodd" clip-rule="evenodd" d="M7.625 2H14.375C17.4811 2 20 4.51887 20 7.625V14.375C20 17.4811 17.4811 20 14.375 20H7.625C4.51887 20 2 17.4811 2 14.375V7.625C2 4.51887 4.51887 2 7.625 2ZM14.375 18.3125C16.5463 18.3125 18.3125 16.5463 18.3125 14.375V7.625C18.3125 5.45375 16.5463 3.6875 14.375 3.6875H7.625C5.45375 3.6875 3.6875 5.45375 3.6875 7.625V14.375C3.6875 16.5463 5.45375 18.3125 7.625 18.3125H14.375Z" fill="#2183AA"/>
<path fill-rule="evenodd" clip-rule="evenodd" d="M6.5 11C6.5 8.51487 8.51487 6.5 11 6.5C13.4851 6.5 15.5 8.51487 15.5 11C15.5 13.4851 13.4851 15.5 11 15.5C8.51487 15.5 6.5 13.4851 6.5 11ZM8.1875 11C8.1875 12.5503 9.44975 13.8125 11 13.8125C12.5503 13.8125 13.8125 12.5503 13.8125 11C13.8125 9.44863 12.5503 8.1875 11 8.1875C9.44975 8.1875 8.1875 9.44863 8.1875 11Z" fill="#2183AA"/>
<circle cx="15.8374" cy="6.16261" r="0.599625" fill="#2183AA"/>
</svg>
