<svg width="32" height="32" viewBox="0 0 32 32" fill="none" xmlns="http://www.w3.org/2000/svg">
<path d="M31 16C31 24.2843 24.2843 31 16 31C7.71573 31 1 24.2843 1 16C1 7.71573 7.71573 1 16 1C24.2843 1 31 7.71573 31 16Z" stroke="white" stroke-width="2"/>
<path d="M24.3197 14.6618C24.3197 14.3127 24.259 13.9054 24.259 13.44C24.1982 12.9745 24.1375 12.5091 24.0768 12.1018C23.9553 11.6364 23.7731 11.2873 23.4087 10.9964C23.1051 10.7054 22.68 10.5309 22.2549 10.4727C20.8581 10.2982 18.7933 10.24 15.9997 10.24C13.2061 10.24 11.0806 10.2982 9.7445 10.4727C9.31939 10.5309 8.89429 10.7054 8.59064 10.9964C8.28699 11.2873 8.04406 11.6364 7.9226 12.1018C7.80114 12.5091 7.74042 12.9164 7.74042 13.44C7.67969 13.9054 7.67969 14.3127 7.67969 14.6618C7.67969 15.0109 7.67969 15.4182 7.67969 16C7.67969 16.5818 7.67969 17.0473 7.67969 17.3382C7.67969 17.6873 7.74042 18.0945 7.74042 18.56C7.80115 19.0254 7.86187 19.4909 7.9226 19.8982C8.04406 20.3636 8.22626 20.7127 8.59064 21.0036C8.89429 21.2945 9.31939 21.4691 9.7445 21.5273C11.1413 21.7018 13.2061 21.76 15.9997 21.76C18.7933 21.76 20.9188 21.7018 22.2549 21.5273C22.68 21.4691 23.1051 21.2945 23.4087 21.0036C23.7124 20.7127 23.9553 20.3636 24.0768 19.8982C24.1982 19.4909 24.259 19.0836 24.259 18.56C24.3197 18.0945 24.3197 17.6873 24.3197 17.3382C24.3197 16.9891 24.3197 16.5818 24.3197 16C24.3197 15.4182 24.3197 14.9527 24.3197 14.6618ZM19.2184 16.4654L14.4207 19.3163C14.36 19.3745 14.2385 19.4327 14.1171 19.4327C13.9956 19.4327 13.9349 19.4327 13.8134 19.3745C13.6312 19.2582 13.5098 19.0836 13.5098 18.8509V13.0909C13.5098 12.8582 13.6312 12.6836 13.8134 12.5673C13.9956 12.4509 14.2385 12.4509 14.4207 12.5673L19.2184 15.4182C19.4006 15.5345 19.522 15.7091 19.522 15.8836C19.522 16.0582 19.4006 16.3491 19.2184 16.4654Z" fill="white"/>
</svg>
