<svg width="22" height="22" viewBox="0 0 22 22" fill="none" xmlns="http://www.w3.org/2000/svg">
<path d="M20.6615 5.88484C20.5527 5.4498 20.3309 5.05119 20.0186 4.72929C19.7064 4.40739 19.3147 4.17359 18.8832 4.0515C17.3065 3.6665 10.9999 3.6665 10.9999 3.6665C10.9999 3.6665 4.69321 3.6665 3.11654 4.08817C2.68502 4.21026 2.29335 4.44406 1.98111 4.76596C1.66886 5.08786 1.4471 5.48646 1.33821 5.9215C1.04965 7.5216 0.908506 9.14479 0.91654 10.7707C0.906254 12.4088 1.04741 14.0444 1.33821 15.6565C1.45825 16.078 1.68499 16.4615 1.9965 16.7698C2.30802 17.0781 2.69379 17.3008 3.11654 17.4165C4.69321 17.8382 10.9999 17.8382 10.9999 17.8382C10.9999 17.8382 17.3065 17.8382 18.8832 17.4165C19.3147 17.2944 19.7064 17.0606 20.0186 16.7387C20.3309 16.4168 20.5527 16.0182 20.6615 15.5832C20.9479 13.9951 21.089 12.3843 21.0832 10.7707C21.0935 9.13255 20.9523 7.49698 20.6615 5.88484V5.88484Z" stroke="#2183AA" stroke-width="1.4" stroke-linecap="round" stroke-linejoin="round"/>
<path d="M8.9375 13.7679L14.2083 10.7704L8.9375 7.77295V13.7679Z" stroke="#2183AA" stroke-width="1.4" stroke-linecap="round" stroke-linejoin="round"/>
</svg>
