<svg width="32" height="32" viewBox="0 0 32 32" fill="none" xmlns="http://www.w3.org/2000/svg">
<path d="M21.9517 7.67993H10.0477C8.70369 7.67993 7.67969 8.70393 7.67969 10.0479V21.9519C7.67969 23.2959 8.70369 24.3199 10.0477 24.3199H21.9517C23.2957 24.3199 24.3197 23.2959 24.3197 21.9519V10.0479C24.3197 8.70393 23.2957 7.67993 21.9517 7.67993ZM15.9997 20.9919C18.7517 20.9919 20.9917 18.8159 20.9917 16.1919C20.9917 15.7439 20.9277 15.2319 20.7997 14.8479H22.2077V21.6319C22.2077 21.9519 21.9517 22.2719 21.5677 22.2719H10.4317C10.1117 22.2719 9.79169 22.0159 9.79169 21.6319V14.7839H11.2637C11.1357 15.2319 11.0717 15.6799 11.0717 16.1279C11.0077 18.8159 13.2477 20.9919 15.9997 20.9919ZM15.9997 19.0719C14.2077 19.0719 12.7997 17.6639 12.7997 15.9359C12.7997 14.2079 14.2077 12.7999 15.9997 12.7999C17.7917 12.7999 19.1997 14.2079 19.1997 15.9359C19.1997 17.7279 17.7917 19.0719 15.9997 19.0719ZM22.1437 12.2239C22.1437 12.6079 21.8237 12.9279 21.4397 12.9279H19.6477C19.2637 12.9279 18.9437 12.6079 18.9437 12.2239V10.4959C18.9437 10.1119 19.2637 9.79193 19.6477 9.79193H21.4397C21.8237 9.79193 22.1437 10.1119 22.1437 10.4959V12.2239Z" fill="white"/>
<path d="M31 16C31 24.2843 24.2843 31 16 31C7.71573 31 1 24.2843 1 16C1 7.71573 7.71573 1 16 1C24.2843 1 31 7.71573 31 16Z" stroke="white" stroke-width="2"/>
</svg>
