<svg width="25" height="26" viewBox="0 0 25 26" fill="none" xmlns="http://www.w3.org/2000/svg">
<path d="M12.5 0.5C10.8585 0.5 9.23303 0.823322 7.71646 1.45151C6.19989 2.07969 4.8219 3.00043 3.66117 4.16117C1.31696 6.50537 0 9.68479 0 13C0 16.3152 1.31696 19.4946 3.66117 21.8388C4.8219 22.9996 6.19989 23.9203 7.71646 24.5485C9.23303 25.1767 10.8585 25.5 12.5 25.5C15.8152 25.5 18.9946 24.183 21.3388 21.8388C23.683 19.4946 25 16.3152 25 13C25 11.3585 24.6767 9.73303 24.0485 8.21646C23.4203 6.69989 22.4996 5.3219 21.3388 4.16117C20.1781 3.00043 18.8001 2.07969 17.2835 1.45151C15.767 0.823322 14.1415 0.5 12.5 0.5ZM6.3375 20.85C7.5 22 10.15 23 12.5 23C14.85 23 16.875 22.2743 18.6625 20.85C16.9117 22.245 14.7386 23.0032 12.5 23C10.175 23 8.0375 22.2 6.3375 20.85ZM20.45 19.0375C18.6625 16.8625 14.325 16.125 12.5 16.125C10.675 16.125 6.3375 16.8625 4.55 19.0375C3.22023 17.3058 2.49958 15.1834 2.5 13C2.5 7.4875 6.9875 3 12.5 3C18.0125 3 22.5 7.4875 22.5 13C22.5 15.275 21.725 17.375 20.45 19.0375ZM12.5 5.5C10.075 5.5 8.125 7.45 8.125 9.875C8.125 12.3 10.075 14.25 12.5 14.25C14.925 14.25 16.875 12.3 16.875 9.875C16.875 7.45 14.925 5.5 12.5 5.5Z" fill="white"/>
</svg>
