<svg width="30" height="30" viewBox="0 0 30 30" fill="none" xmlns="http://www.w3.org/2000/svg">
<path d="M15.5 3C17.1415 3 18.767 3.32332 20.2835 3.95151C21.8001 4.57969 23.1781 5.50043 24.3388 6.66117C25.4996 7.8219 26.4203 9.19989 27.0485 10.7165C27.6767 12.233 28 13.8585 28 15.5C28 18.8152 26.683 21.9946 24.3388 24.3388C21.9946 26.683 18.8152 28 15.5 28C13.8585 28 12.233 27.6767 10.7165 27.0485C9.19989 26.4203 7.8219 25.4996 6.66117 24.3388C4.31696 21.9946 3 18.8152 3 15.5C3 12.1848 4.31696 9.00537 6.66117 6.66117C9.00537 4.31696 12.1848 3 15.5 3ZM15.5 5.5C12.8478 5.5 10.3043 6.55357 8.42893 8.42893C6.55357 10.3043 5.5 12.8478 5.5 15.5C5.5 18.1522 6.55357 20.6957 8.42893 22.5711C10.3043 24.4464 12.8478 25.5 15.5 25.5C18.1522 25.5 20.6957 24.4464 22.5711 22.5711C24.4464 20.6957 25.5 18.1522 25.5 15.5C25.5 12.8478 24.4464 10.3043 22.5711 8.42893C20.6957 6.55357 18.1522 5.5 15.5 5.5Z" fill="white"/>
<path d="M14.0556 21C13.864 21 13.6803 20.9356 13.5449 20.821C13.4094 20.7064 13.3333 20.551 13.3333 20.3889V18.5556H10.4444C10.0614 18.5556 9.69395 18.4268 9.42307 18.1976C9.15218 17.9684 9 17.6575 9 17.3333V11.2222C9 10.8981 9.15218 10.5872 9.42307 10.358C9.69395 10.1288 10.0614 10 10.4444 10H20.5556C20.9386 10 21.306 10.1288 21.5769 10.358C21.8478 10.5872 22 10.8981 22 11.2222V17.3333C22 17.6575 21.8478 17.9684 21.5769 18.1976C21.306 18.4268 20.9386 18.5556 20.5556 18.5556H17.5944L14.9222 20.8228C14.7778 20.9389 14.5972 21 14.4167 21H14.0556Z" fill="white"/>
</svg>
