<svg width="30" height="30" viewBox="0 0 30 30" fill="none" xmlns="http://www.w3.org/2000/svg">
<path d="M21.25 20H8.75V18.75L10 17.5V14.2375C10 12.875 10.3375 11.675 10.9875 10.6625C11.625 9.65 12.55 9.0125 13.75 8.75V8.125C13.75 7.79348 13.8817 7.47554 14.1161 7.24112C14.3505 7.0067 14.6685 6.875 15 6.875C15.3315 6.875 15.6495 7.0067 15.8839 7.24112C16.1183 7.47554 16.25 7.79348 16.25 8.125V8.75C17.45 9.0125 18.375 9.65 19.0125 10.6625C19.6625 11.675 20 12.875 20 14.2375V17.5L21.25 18.75V20ZM16.875 21.25C16.875 21.7473 16.6775 22.2242 16.3258 22.5758C15.9742 22.9275 15.4973 23.125 15 23.125C14.5027 23.125 14.0258 22.9275 13.6742 22.5758C13.3225 22.2242 13.125 21.7473 13.125 21.25H16.875ZM15 2.5C16.6415 2.5 18.267 2.82332 19.7835 3.45151C21.3001 4.07969 22.6781 5.00043 23.8388 6.16117C24.9996 7.3219 25.9203 8.69989 26.5485 10.2165C27.1767 11.733 27.5 13.3585 27.5 15C27.5 18.3152 26.183 21.4946 23.8388 23.8388C21.4946 26.183 18.3152 27.5 15 27.5C13.3585 27.5 11.733 27.1767 10.2165 26.5485C8.69989 25.9203 7.3219 24.9996 6.16117 23.8388C3.81696 21.4946 2.5 18.3152 2.5 15C2.5 11.6848 3.81696 8.50537 6.16117 6.16117C8.50537 3.81696 11.6848 2.5 15 2.5ZM15 5C12.3478 5 9.8043 6.05357 7.92893 7.92893C6.05357 9.8043 5 12.3478 5 15C5 17.6522 6.05357 20.1957 7.92893 22.0711C9.8043 23.9464 12.3478 25 15 25C17.6522 25 20.1957 23.9464 22.0711 22.0711C23.9464 20.1957 25 17.6522 25 15C25 12.3478 23.9464 9.8043 22.0711 7.92893C20.1957 6.05357 17.6522 5 15 5Z" fill="white"/>
</svg>
