<svg width="124" height="32" viewBox="0 0 124 32" fill="none" xmlns="http://www.w3.org/2000/svg">
<path d="M37 0V32H46V6.63636H58V0H37Z" fill="white"/>
<path d="M0 0V32H8.27586V14.2222C12.6897 17.7778 13.7931 23.4815 13.7931 25.8889H18.7586C19.3103 21.4444 22.4368 16.6296 24.2759 14.2222V32H32V0H24C21.7931 1.11111 17.6552 10.8889 16 14.2222C14.3448 10.3333 10.3908 2.59259 8 0H0Z" fill="white"/>
<path d="M103.7 0H95V32H103.7V18.8679C105.092 18.8679 106.213 18.5031 106.6 18.3208C111.704 20.9472 114.913 28.5346 115.88 32H124C123.536 25.434 117.233 17.5912 114.14 14.4906C119.708 11.8642 121.807 2.73585 122 0H113C110.216 6.1283 105.633 11.3899 103.7 11.7547V0Z" fill="white"/>
<path d="M90 16C90 24.8366 82.8366 32 74 32C65.1634 32 58 24.8366 58 16C58 7.16344 65.1634 0 74 0C82.8366 0 90 7.16344 90 16ZM66.9756 16C66.9756 20.0454 69.9546 24.7619 74 24.7619C78.0454 24.7619 81.0244 20.0454 81.0244 16C81.0244 11.9546 78.0454 7.2381 74 7.2381C69.9546 7.2381 66.9756 11.9546 66.9756 16Z" fill="white"/>
</svg>
