<svg width="24" height="24" viewBox="0 0 24 24" fill="none" xmlns="http://www.w3.org/2000/svg">
<path d="M6.35 6.35C7.09011 5.60485 7.97039 5.01356 8.9401 4.61023C9.9098 4.2069 10.9498 3.99951 12 4C14.1217 4 16.1566 4.84286 17.6569 6.34315C19.1571 7.84344 20 9.87827 20 12C20 14.1217 19.1571 16.1566 17.6569 17.6569C16.1566 19.1571 14.1217 20 12 20C8.27 20 5.16 17.45 4.27 14H6.35C6.76194 15.1695 7.52666 16.1824 8.53866 16.8988C9.55066 17.6153 10.7601 18 12 18C13.5913 18 15.1174 17.3679 16.2426 16.2426C17.3679 15.1174 18 13.5913 18 12C18 10.4087 17.3679 8.88258 16.2426 7.75736C15.1174 6.63214 13.5913 6 12 6C10.34 6 8.86 6.69 7.78 7.78L11 11H4V4L6.35 6.35Z" fill="#2183AA"/>
</svg>
